<svg xmlns="http://www.w3.org/2000/svg" viewBox="0 0 100 125" x="0px" y="0px"><title>artificial-neural-network</title><g><g><g><g><g><polygon points="84.91 46.88 53.05 17.81 54.06 16.7 85.92 45.77 84.91 46.88"/><rect x="47.65" y="67.02" width="43.68" height="1.5" transform="translate(-27.56 65.77) rotate(-43.1)"/><polygon points="45.31 84.59 15.05 70.31 15.69 68.95 45.95 83.23 45.31 84.59"/><polygon points="15.68 66.21 15.05 64.84 45.29 50.89 45.92 52.25 15.68 66.21"/><rect x="29.75" y="24.2" width="1.5" height="33.14" transform="translate(-19.21 51.83) rotate(-65.74)"/><rect x="13.83" y="22.22" width="33.3" height="1.5" transform="translate(-6.81 14.85) rotate(-24.71)"/><rect x="54.84" y="48.81" width="29.31" height="1.5"/><rect x="52.83" y="57.8" width="33.3" height="1.5" transform="translate(-18.13 34.48) rotate(-24.76)"/><rect x="8.92" y="49.04" width="43.13" height="1.5" transform="translate(-25.61 33.61) rotate(-42.43)"/><rect x="15.84" y="66.81" width="29.31" height="1.5"/><rect x="29.74" y="28.22" width="1.5" height="43.13" transform="translate(-26.84 38.75) rotate(-47.63)"/><rect x="15.84" y="31.23" width="29.31" height="1.5"/><rect x="68.75" y="24.21" width="1.5" height="33.14" transform="translate(3.77 87.38) rotate(-65.74)"/><rect x="29.74" y="30.52" width="1.5" height="56.96" transform="translate(-28.78 29.03) rotate(-35.85)"/><rect x="2.18" y="40.03" width="56.61" height="1.5" transform="translate(-20.42 41.53) rotate(-54.07)"/><path d="M50,37.71a5.64,5.64,0,0,0,5.17-3.34A5.2,5.2,0,0,0,55.71,32a5.71,5.71,0,1,0-10,3.83A5.6,5.6,0,0,0,50,37.71Z"/><path d="M50,61.87a5.72,5.72,0,0,0-5.7,5.7,5.71,5.71,0,1,0,11.42,0,5.21,5.21,0,0,0-.55-2.4A5.69,5.69,0,0,0,50,61.87Z"/><path d="M46.6,18.57A5.72,5.72,0,0,0,55.71,14a5.71,5.71,0,0,0-11.42,0,5.33,5.33,0,0,0,.51,2.33A5.4,5.4,0,0,0,46.6,18.57Z"/><path d="M50,43.87a5.58,5.58,0,0,0-5.15,3.31,5.52,5.52,0,0,0,0,4.74A5.67,5.67,0,0,0,50,55.29a5.71,5.71,0,1,0,0-11.42Z"/><path d="M46.69,81.36a5.25,5.25,0,0,0-1.84,2.19A5.65,5.65,0,0,0,44.29,86a5.71,5.71,0,1,0,9.85-3.91A5.93,5.93,0,0,0,46.69,81.36Z"/><path d="M89,55.16a5.52,5.52,0,0,1-4.09-1.81,5.79,5.79,0,0,1-1.48-3.78A5.33,5.33,0,0,1,84,47.22a4.19,4.19,0,0,1,1-1.45A5.46,5.46,0,0,1,89,44a5.58,5.58,0,1,1,0,11.16ZM89,45a4.47,4.47,0,0,0-3.33,1.46,3.39,3.39,0,0,0-.78,1.16,4.3,4.3,0,0,0-.46,2,4.24,4.24,0,0,0,.41,1.86A4.57,4.57,0,1,0,89,45Z"/><path d="M11,37.58a5.58,5.58,0,1,1,5-7.93A5,5,0,0,1,16.58,32,5.29,5.29,0,0,1,16,34.33a4.51,4.51,0,0,1-1,1.48,3.67,3.67,0,0,1-.86.73A5.42,5.42,0,0,1,11,37.58Zm0-10.16a4.58,4.58,0,0,0,0,9.16,4.43,4.43,0,0,0,2.62-.85,2.66,2.66,0,0,0,.68-.58,3.5,3.5,0,0,0,.83-1.21A4.33,4.33,0,0,0,15.58,32a4,4,0,0,0-.44-1.9A4.56,4.56,0,0,0,11,27.42Z"/><path d="M11,73.16A5.58,5.58,0,0,1,11,62a5.52,5.52,0,0,1,3.29,1.08,4.74,4.74,0,0,1,.84.77,4.4,4.4,0,0,1,1,1.45,4.91,4.91,0,0,1,.51,2.27A5.53,5.53,0,0,1,16,70,5.61,5.61,0,0,1,11,73.16ZM11,63a4.54,4.54,0,1,0,4.59,4.57,4,4,0,0,0-.41-1.84,3.52,3.52,0,0,0-.78-1.19,3.81,3.81,0,0,0-.68-.64A4.53,4.53,0,0,0,11,63Z"/></g></g></g></g></g><text x="0" y="115" fill="#000000" font-size="5px" font-weight="bold" font-family="'Helvetica Neue', Helvetica, Arial-Unicode, Arial, Sans-serif">Created by Product Pencil</text><text x="0" y="120" fill="#000000" font-size="5px" font-weight="bold" font-family="'Helvetica Neue', Helvetica, Arial-Unicode, Arial, Sans-serif">from the Noun Project</text></svg>