<?xml version="1.0" encoding="iso-8859-1"?>
<!-- Uploaded to: SVG Repo, www.svgrepo.com, Generator: SVG Repo Mixer Tools -->
<svg height="800px" width="800px" version="1.1" id="Layer_1" xmlns="http://www.w3.org/2000/svg" xmlns:xlink="http://www.w3.org/1999/xlink" 
	 viewBox="0 0 512.006 512.006" xml:space="preserve">
<circle style="fill:#6B7F9E;" cx="256.003" cy="256.003" r="256.003"/>
<path style="fill:#FFFFFF;" d="M256.003,72.982c50.542,0,96.295,20.489,129.414,53.607c33.124,33.118,53.607,78.878,53.607,129.414
	c0,50.542-20.483,96.295-53.607,129.414c-33.118,33.124-78.872,53.607-129.414,53.607c-50.536,0-96.295-20.483-129.414-53.607
	c-33.118-33.118-53.607-78.872-53.607-129.414c0-50.536,20.489-96.295,53.607-129.414S205.467,72.982,256.003,72.982z
	 M392.692,357.683c-12.641-6.48-29.583-11.575-49.012-15.285c-1.771,3.867-3.662,7.679-5.679,11.437
	c-15.135,28.156-37.304,53.107-66.502,71.82c40.863-3.68,77.565-21.796,104.962-49.193
	C382.315,370.613,387.736,364.332,392.692,357.683z M240.513,425.66c-29.198-18.718-51.373-43.664-66.502-71.82
	c-2.012-3.734-3.891-7.528-5.649-11.371c-19.387,3.71-36.328,8.781-49.042,15.225c4.957,6.649,10.377,12.924,16.231,18.778
	c27.397,27.403,64.105,45.513,104.962,49.193V425.66z M112.099,347.203c13.316-7.004,31.041-12.533,51.283-16.592
	c-8.365-21.826-12.918-44.965-13.659-68.2H85.78c1.15,31.125,10.648,60.118,26.319,84.798V347.203z M85.774,249.733h63.924
	c0.705-25.241,5.914-50.349,15.623-73.789c-19.61-3.812-36.949-8.986-50.343-15.52C97.572,186.062,86.972,216.693,85.774,249.733z
	 M122.596,150.065c12.81,5.938,29.354,10.63,48.066,14.069c1.18-2.391,2.409-4.764,3.686-7.119
	c15.105-27.752,37.111-52.276,66.008-70.651c-40.803,3.71-77.451,21.814-104.817,49.181c-4.589,4.589-8.907,9.431-12.949,14.514
	L122.596,150.065z M271.644,86.37c28.896,18.375,50.897,42.893,66.002,70.651c1.289,2.373,2.529,4.764,3.716,7.179
	c18.748-3.445,35.298-8.155,48.054-14.123c-4.047-5.089-8.371-9.943-12.961-14.533c-27.367-27.367-64.008-45.471-104.811-49.181
	V86.37z M397.046,160.448c-13.328,6.565-30.673,11.756-50.337,15.568c9.69,23.416,14.888,48.5,15.593,73.711h63.924
	c-1.192-33.022-11.78-63.653-29.18-89.285V160.448z M426.226,262.405h-63.942c-0.735,23.205-5.282,46.314-13.629,68.122
	c20.29,4.059,38.015,9.612,51.264,16.653c15.665-24.675,25.156-53.661,26.307-84.78V262.405z M262.339,95.458v75.758
	c22.808-0.241,45.398-1.867,65.96-4.872c-0.566-1.102-1.15-2.198-1.741-3.288C312.013,136.334,290.603,112.803,262.339,95.458z
	 M262.339,183.894v65.833h87.346c-0.729-24.506-5.974-48.873-15.731-71.482c-22.284,3.499-46.874,5.384-71.609,5.643
	L262.339,183.894z M262.339,262.405v59.865c25.494,0.271,50.825,2.258,73.644,5.968c8.347-21.013,12.906-43.369,13.671-65.833
	H262.339z M262.339,334.947V416.5c28.451-17.658,49.97-41.568,64.52-68.652c1.361-2.529,2.656-5.083,3.897-7.667
	c-21.218-3.234-44.706-4.987-68.417-5.24V334.947z M249.661,416.5v-81.546c-23.687,0.277-47.151,2.042-68.387,5.288
	c1.229,2.56,2.517,5.101,3.867,7.607C199.698,374.931,221.21,398.841,249.661,416.5z M249.661,322.276v-59.871h-87.316
	c0.765,22.488,5.33,44.874,13.701,65.905C198.885,324.588,224.204,322.571,249.661,322.276z M249.661,249.727v-65.839
	c-24.705-0.289-49.277-2.192-71.579-5.709c-9.781,22.627-15.032,47.019-15.761,71.549h87.346H249.661z M249.661,171.211V95.458
	c-28.264,17.345-49.674,40.881-64.219,67.598c-0.584,1.072-1.15,2.15-1.71,3.228c20.579,3.017,43.158,4.655,65.936,4.926H249.661z"
	/>
<circle style="fill:#83CF8F;" cx="173.09" cy="172.036" r="21.946"/>
<g>
	<circle style="fill:#FFE356;" cx="335.303" cy="172.036" r="21.946"/>
	<circle style="fill:#FFE356;" cx="173.09" cy="337.097" r="21.946"/>
</g>
<g>
	<circle style="fill:#83CF8F;" cx="335.303" cy="337.097" r="21.946"/>
	<circle style="fill:#83CF8F;" cx="431.333" cy="256.515" r="21.946"/>
	<circle style="fill:#83CF8F;" cx="79.023" cy="256.515" r="21.946"/>
</g>
<circle style="fill:#FF7069;" cx="256.003" cy="256.003" r="34.323"/>
</svg>