<?xml version="1.0" encoding="iso-8859-1"?>
<!-- Uploaded to: SVG Repo, www.svgrepo.com, Generator: SVG Repo Mixer Tools -->
<svg version="1.1" id="Layer_1" xmlns="http://www.w3.org/2000/svg" xmlns:xlink="http://www.w3.org/1999/xlink" 
	 viewBox="0 0 512 512" xml:space="preserve">
<rect x="119.324" y="281.36" style="fill:#FDDD85;" width="273.351" height="222.098"/>
<rect x="119.324" y="281.36" style="fill:#FDD042;" width="34.169" height="222.098"/>
<polygon style="fill:#F2C127;" points="281.627,349.698 256,332.613 230.373,349.698 230.373,281.36 281.627,281.36 "/>
<rect x="187.662" y="375.324" style="fill:#EBEBEC;" width="136.676" height="34.169"/>
<g>
	<path style="fill:#D7D8D9;" d="M469.556,238.649c0,18.871,11.473,34.169,25.627,34.169c-14.153,0-25.627,15.298-25.627,34.169
		c0-18.871-11.473-34.169-25.627-34.169C458.083,272.818,469.556,257.519,469.556,238.649z"/>
	<path style="fill:#D7D8D9;" d="M341.422,8.008c0,18.871,11.473,34.169,25.627,34.169c-14.153,0-25.627,15.298-25.627,34.169
		c0-18.871-11.473-34.169-25.627-34.169C329.949,42.177,341.422,26.879,341.422,8.008z"/>
	<path style="fill:#D7D8D9;" d="M170.578,8.008c0,18.871,11.473,34.169,25.627,34.169c-14.153,0-25.627,15.298-25.627,34.169
		c0-18.871-11.473-34.169-25.627-34.169C159.104,42.177,170.578,26.879,170.578,8.008z"/>
	<path style="fill:#D7D8D9;" d="M42.444,238.649c0,18.871,11.473,34.169,25.627,34.169c-14.153,0-25.627,15.298-25.627,34.169
		c0-18.871-11.473-34.169-25.627-34.169C30.971,272.818,42.444,257.519,42.444,238.649z"/>
</g>
<polygon style="fill:#E5563C;" points="85.155,93.431 196.204,170.311 256,93.431 315.796,170.311 426.845,93.431 392.676,204.48 
	119.324,204.48 "/>
<rect x="119.324" y="204.48" style="fill:#F58F6C;" width="273.351" height="51.253"/>
<polygon style="fill:#CF442B;" points="85.155,93.431 119.324,204.48 144.951,204.48 117.718,115.975 "/>
<rect x="119.324" y="204.48" style="fill:#F07B52;" width="25.627" height="51.253"/>
<g>
	<circle style="fill:#F58F6C;" cx="435.387" cy="67.804" r="17.084"/>
	<circle style="fill:#F58F6C;" cx="256" cy="67.804" r="17.084"/>
	<circle style="fill:#F58F6C;" cx="76.613" cy="67.804" r="17.084"/>
</g>
<path d="M392.676,273.885H196.204c-4.424,0-8.008,3.585-8.008,8.008c0,4.424,3.585,8.008,8.008,8.008h25.627v59.796
	c0,6.265,7.488,10.149,12.717,6.663l21.318-14.124l20.984,14.124c5.232,3.49,12.251-0.403,12.251-6.663v-59.796h95.032v206.081
	H126.799V289.902h35.237c4.424,0,8.008-3.585,8.008-8.008c0-4.424-3.585-8.008-8.008-8.008h-42.711
	c-4.424,0-8.542,3.051-8.542,7.474v222.098c0,4.424,4.118,8.542,8.542,8.542h273.351c4.424,0,7.474-4.118,7.474-8.542V281.36
	C400.15,276.936,397.1,273.885,392.676,273.885z M273.084,334.734l-12.909-8.785c-2.661-1.774-6.356-1.775-9.017,0l-13.31,8.785
	v-44.832h35.237V334.734z"/>
<path d="M173.456,429.456l-25.627,25.627c-3.128,3.129-3.128,8.198,0,11.326c3.129,3.126,7.931,3.126,11.059,0l11.688-11.956v23.378
	c0,4.424,3.585,8.008,8.008,8.008c4.424,0,8.008-3.585,8.008-8.008v-23.377l12.222,11.956c3.258,3.256,8.89,3.039,11.885-0.46
	c2.683-3.135,2.556-7.951-0.359-10.867l-25.594-25.627C181.622,426.331,176.585,426.331,173.456,429.456z"/>
<path d="M327.217,429.456l-25.627,25.627c-3.128,3.129-3.128,8.198,0,11.326c3.129,3.126,7.931,3.126,11.059,0l11.688-11.956v23.378
	c0,4.424,3.585,8.008,8.008,8.008s8.008-3.585,8.008-8.008v-23.377l12.222,11.956c3.258,3.256,8.891,3.039,11.885-0.46
	c2.683-3.135,2.556-7.951-0.359-10.867l-25.594-25.627C335.382,426.331,330.345,426.331,327.217,429.456z"/>
<path d="M331.812,375.858c0-4.423-3.586-8.008-8.008-8.008H187.128c-4.423,0-8.008,3.586-8.008,8.008v34.169
	c0,4.423,3.586,8.008,8.008,8.008h136.676c4.423,0,8.008-3.586,8.008-8.008V375.858z M195.137,383.867h120.659v18.152H195.137
	V383.867z"/>
<path d="M323.804,307.52c-4.424,0-8.008,3.585-8.008,8.008v17.084c0,4.424,3.585,8.008,8.008,8.008c4.424,0,8.008-3.585,8.008-8.008
	v-17.084C331.812,311.105,328.228,307.52,323.804,307.52z"/>
<path d="M357.439,332.613v-17.084c0-4.424-3.585-8.008-8.008-8.008c-4.424,0-8.008,3.585-8.008,8.008v17.084
	c0,4.424,3.585,8.008,8.008,8.008C353.854,340.621,357.439,337.037,357.439,332.613z"/>
<path d="M187.128,340.621c4.424,0,8.008-3.585,8.008-8.008v-17.084c0-4.424-3.585-8.008-8.008-8.008s-8.008,3.585-8.008,8.008
	v17.084C179.12,337.037,182.704,340.621,187.128,340.621z"/>
<path d="M169.51,332.613v-17.084c0-4.424-3.585-8.008-8.008-8.008s-8.008,3.585-8.008,8.008v17.084c0,4.424,3.585,8.008,8.008,8.008
	S169.51,337.037,169.51,332.613z"/>
<path d="M495.182,264.809c-9.55,0-17.618-11.98-17.618-26.161c0-4.424-3.585-8.008-8.008-8.008c-4.424,0-8.008,3.585-8.008,8.008
	c0,14.18-8.068,26.161-17.618,26.161c-4.424,0-8.008,3.585-8.008,8.008c0,4.424,3.585,8.008,8.008,8.008
	c9.55,0,17.618,11.98,17.618,26.161c0,4.424,3.585,8.008,8.008,8.008c4.424,0,8.008-3.585,8.008-8.008
	c0-14.18,8.068-26.161,17.618-26.161c4.424,0,8.008-3.585,8.008-8.008C503.191,268.394,499.606,264.809,495.182,264.809z
	 M469.556,279.697c-1.749-2.578-3.74-4.89-5.928-6.88c2.188-1.989,4.179-4.302,5.928-6.88c1.749,2.578,3.74,4.89,5.928,6.88
	C473.296,274.807,471.305,277.12,469.556,279.697z"/>
<path d="M315.796,50.186c9.55,0,17.618,11.98,17.618,26.161c0,4.424,3.585,8.008,8.008,8.008c4.424,0,8.008-3.585,8.008-8.008
	c0-14.18,8.068-26.161,17.618-26.161c4.424,0,8.008-3.585,8.008-8.008s-3.585-8.008-8.008-8.008c-9.55,0-17.618-11.98-17.618-26.161
	c0-4.424-3.585-8.008-8.008-8.008c-4.424,0-8.008,3.585-8.008,8.008c0,14.18-8.068,26.161-17.618,26.161
	c-4.424,0-8.008,3.585-8.008,8.008S311.372,50.186,315.796,50.186z M341.422,35.298c1.749,2.578,3.74,4.89,5.928,6.88
	c-2.188,1.989-4.179,4.302-5.928,6.88c-1.749-2.578-3.74-4.89-5.928-6.88C337.682,40.188,339.673,37.875,341.422,35.298z"/>
<path d="M144.951,50.186c9.55,0,17.618,11.98,17.618,26.161c0,4.424,3.585,8.008,8.008,8.008s8.008-3.585,8.008-8.008
	c0-14.18,8.068-26.161,17.618-26.161c4.424,0,8.008-3.585,8.008-8.008s-3.585-8.008-8.008-8.008c-9.55,0-17.618-11.98-17.618-26.161
	c0-4.424-3.585-8.008-8.008-8.008s-8.008,3.585-8.008,8.008c0,14.18-8.068,26.161-17.618,26.161c-4.424,0-8.008,3.585-8.008,8.008
	S140.527,50.186,144.951,50.186z M170.578,35.298c1.749,2.578,3.74,4.89,5.928,6.88c-2.188,1.989-4.179,4.302-5.928,6.88
	c-1.749-2.578-3.74-4.89-5.928-6.88C166.837,40.188,168.829,37.875,170.578,35.298z"/>
<path d="M68.071,264.809c-9.55,0-17.618-11.98-17.618-26.161c0-4.424-3.585-8.008-8.008-8.008s-8.008,3.585-8.008,8.008
	c0,14.18-8.068,26.161-17.618,26.161c-4.424,0-8.008,3.585-8.008,8.008c0,4.424,3.585,8.008,8.008,8.008
	c9.55,0,17.618,11.98,17.618,26.161c0,4.424,3.585,8.008,8.008,8.008s8.008-3.585,8.008-8.008c0-14.18,8.068-26.161,17.618-26.161
	c4.424,0,8.008-3.585,8.008-8.008C76.079,268.394,72.495,264.809,68.071,264.809z M42.444,279.697
	c-1.749-2.578-3.74-4.89-5.928-6.88c2.188-1.989,4.179-4.302,5.928-6.88c1.749,2.578,3.74,4.89,5.928,6.88
	C46.185,274.807,44.193,277.12,42.444,279.697z"/>
<path d="M460.48,67.804c0-13.836-11.257-25.093-25.093-25.093c-13.836,0-25.093,11.257-25.093,25.093
	c0,8.297,4.05,15.661,10.273,20.232l-103.102,71.378l-52.906-68.022c9.635-3.508,16.534-12.757,16.534-23.588
	c0-13.836-11.257-25.093-25.093-25.093c-13.836,0-25.093,11.257-25.093,25.093c0,10.832,6.899,20.081,16.533,23.588l-52.906,68.022
	L91.433,88.036c6.223-4.571,10.273-11.936,10.273-20.232c0-13.836-11.257-25.093-25.093-25.093S51.52,53.968,51.52,67.804
	s11.257,25.093,25.093,25.093c0.191-0.003,0.382-0.007,0.574-0.015c-0.067,0.977-0.241,1.967,0.047,2.904l33.547,109.897v50.05
	c0,4.424,4.118,8.542,8.542,8.542h273.351c4.424,0,7.474-4.118,7.474-8.542v-50.05l34.081-109.897
	c0.288-0.938,0.516-1.927,0.447-2.904c0.191,0.007,0.45,0.012,0.641,0.015C449.157,92.897,460.48,81.64,460.48,67.804z
	 M67.537,67.804c0-5.005,4.071-9.076,9.076-9.076s9.076,4.071,9.076,9.076s-4.071,9.076-9.076,9.076S67.537,72.809,67.537,67.804z
	 M256,58.728c5.005,0,9.076,4.071,9.076,9.076S261.005,76.88,256,76.88s-9.076-4.071-9.076-9.076S250.995,58.728,256,58.728z
	 M384.133,248.259H126.799v-35.237h257.335V248.259z M386.761,197.005H125.239l-25.629-83.56l92.035,63.583
	c3.493,2.42,8.269,1.622,10.88-1.734l53.474-68.786l53.474,68.736c2.61,3.356,7.385,4.079,10.88,1.659l92.035-63.454
	L386.761,197.005z M435.387,58.728c5.005,0,9.076,4.071,9.076,9.076s-4.071,9.076-9.076,9.076s-9.076-4.071-9.076-9.076
	S430.382,58.728,435.387,58.728z"/>
</svg>